<svg xmlns="http://www.w3.org/2000/svg" width="110" height="33" viewBox="0 0 110 33" fill="none">
  <path d="M14.0883 6.03787C14.2412 6.02864 14.3944 6.02322 14.5475 6.02161C16.8107 6.00289 16.7504 5.94204 16.6802 8.14112C14.6668 7.90385 13.042 7.92231 11.1135 8.66591C8.70372 9.59511 6.74237 11.401 5.60651 13.6918C4.33423 16.2578 4.17951 19.1682 5.14057 21.8391C6.12273 24.4294 8.0683 26.4706 10.58 27.5997C18.6958 31.2482 27.3691 23.1643 24.3519 14.7571C23.7104 13.0168 22.617 11.4784 21.1839 10.3001C20.9074 10.0751 20.6208 9.83062 20.2987 9.67866C20.2466 9.03915 20.2578 8.07362 20.2639 7.42924C20.7555 7.62107 21.8732 8.2097 22.2113 8.56229C22.4149 8.80595 22.7 8.97047 22.939 9.18752C25.3018 11.3331 26.7274 14.3527 26.9287 17.5198C27.1437 20.804 26.0382 23.9767 23.8434 26.424C19.4264 31.3491 11.7017 31.8014 6.7202 27.4594C4.33857 25.3835 2.72584 22.2619 2.52858 19.1034C2.3227 15.7683 3.43736 12.4859 5.63195 9.96498C7.73155 7.59654 10.9554 6.22852 14.0883 6.03787Z" fill="#FE751A"/>
  <path d="M17.5317 2.50842C20.308 3.0358 22.9027 4.26551 25.0682 6.08022C27.9097 8.4669 29.9945 12.0916 30.4768 15.7905C30.5821 16.5978 30.6348 17.4354 30.7049 18.2479L28.7403 18.2519C28.6697 16.4418 28.4318 14.8554 27.7589 13.148C26.5521 10.1033 24.3281 7.56994 21.4645 5.978C20.8455 5.63324 20.111 5.33093 19.4554 5.04688C19.4376 5.61548 19.4476 6.22901 19.4464 6.80118L19.4451 14.8877C19.4451 16.1018 19.4618 17.3133 19.4312 18.5302C19.3676 20.5623 17.85 22.36 15.8795 22.8189C13.3718 23.4031 10.648 21.8937 10.1248 19.2912C9.25999 14.9897 13.7761 11.9409 17.5055 14.4345C17.5678 13.3695 17.5075 11.9689 17.5188 10.8676C17.5472 8.09247 17.4762 5.28195 17.5317 2.50842Z" fill="#113B53"/>
  <path d="M72.9883 7.32928C76.316 6.97648 79.298 9.39025 79.6443 12.7165C79.99 16.0428 77.5686 19.0182 74.2398 19.3572C70.9207 19.6952 67.9543 17.2839 67.6091 13.9673C67.2639 10.6508 69.6708 7.68107 72.9883 7.32928ZM73.951 16.2509C75.5708 16.0713 76.7343 14.6068 76.5421 12.9891C76.3498 11.3714 74.8761 10.22 73.2589 10.4246C71.659 10.627 70.5223 12.0809 70.7124 13.681C70.9025 15.2811 72.3483 16.4285 73.951 16.2509Z" fill="#113B53"/>
  <path d="M14.3589 9.79024C15.0851 9.77173 15.9936 9.74436 16.6398 10.0654C16.6468 10.642 16.6304 11.4507 16.6879 12.0061C16.0742 11.8407 15.2483 11.7373 14.6157 11.7478C12.9155 11.7831 11.2979 12.4873 10.1141 13.7075C8.90411 14.9501 8.23428 16.62 8.25038 18.3538C8.27369 20.061 8.97842 21.6882 10.2079 22.8736C11.4463 24.0863 13.1181 24.7543 14.8517 24.7289C16.7563 24.6864 18.0842 23.9674 19.3762 22.657C21.1822 20.8253 21.6758 18.2901 20.7854 15.9137C20.6819 15.6372 20.3406 15.1244 20.3154 14.8712C20.2167 13.8769 20.2835 12.8553 20.2591 11.8479C21.0299 12.4853 21.2898 12.8409 21.8824 13.6579C22.6888 15.0827 23.0902 16.0473 23.2052 17.732C23.3643 20.0644 22.5564 22.2738 20.9533 24.0031C19.4461 25.6505 17.3379 26.6209 15.1056 26.6948C12.8494 26.7972 10.6449 25.9994 8.97719 24.4772C7.31242 22.9496 6.32834 20.8199 6.24431 18.5627C6.16802 16.426 6.95791 14.0434 8.42982 12.4682C9.97405 10.8271 12.1059 9.86413 14.3589 9.79024Z" fill="#00C4B6"/>
  <path d="M36.0337 7.6706C39.0058 7.58115 42.2906 7.67709 45.3069 7.65515L45.3128 10.3978C43.9293 10.3477 42.5486 10.3836 41.1657 10.3764C40.5766 10.3734 39.8328 10.4036 39.2636 10.3624C39.2666 10.9311 39.2651 11.4998 39.2591 12.0685L42.7051 12.0696C43.2797 12.0696 44.1845 12.0958 44.7321 12.0325C44.7344 12.8668 44.7236 13.7577 44.7551 14.5867C43.3905 14.5275 41.5906 14.5797 40.1934 14.58L39.2543 14.5887L39.275 16.384C41.2197 16.3237 43.4055 16.3792 45.384 16.3689C45.3685 17.2226 45.3481 18.2846 45.4037 19.1289C42.9797 19.0743 40.5312 19.1448 38.1048 19.1166C37.4274 19.1087 36.7073 19.1039 36.0342 19.1428C36.0832 17.3446 36.058 15.4562 36.0581 13.6492C36.0692 11.6564 36.0611 9.66337 36.0337 7.6706Z" fill="#113B53"/>
  <path d="M94.8313 7.568C95.8396 7.55813 96.8484 7.55791 97.8567 7.5673C98.1058 8.06676 98.406 8.82892 98.6336 9.35751L100.351 13.4313C101.074 15.1566 102.079 17.3078 102.684 19.0438C101.721 18.9754 100.301 19.029 99.2731 19.0159C98.9837 18.4602 98.6406 17.5931 98.4333 17.0068L97.7021 16.9965L94.1086 16.9939C93.9304 17.6394 93.6093 18.4017 93.3441 19.0214C92.2085 19.0289 91.0735 19.026 89.938 19.0126L93.6404 10.2548C93.8418 9.78351 94.5741 7.8452 94.8313 7.568ZM95.0842 14.4904L96.3867 14.4902L97.4932 14.4915C97.359 14.1661 96.3486 11.513 96.2868 11.4604C95.919 12.4084 95.5046 13.593 95.0842 14.4904Z" fill="#113B53"/>
  <path d="M49.974 7.53244C51.6787 7.26763 53.8825 7.72099 55.2699 8.74469C55.323 8.78397 55.4889 8.95406 55.4685 8.99758C55.1952 9.58235 54.3469 10.7854 53.9276 11.2548C52.8073 10.4889 51.2787 9.81115 49.9223 10.2909C49.8765 10.3654 49.7421 10.5801 49.722 10.6488C49.4352 11.6302 51.4059 11.8513 51.9695 11.9982C53.8234 12.4817 55.7413 13.0382 55.8266 15.2994C55.9308 18.0385 53.8863 19.1246 51.4695 19.201C49.5326 19.2383 47.7134 18.7827 46.1562 17.5861C46.0084 17.4726 45.9961 17.4279 45.9756 17.2726C46.1015 16.9115 47.3023 15.6085 47.6353 15.1869C47.7933 15.2725 48.0974 15.4435 48.5598 15.7705C49.3728 16.3455 52.4644 17.2402 52.6119 15.6901C52.6789 14.9859 49.573 14.5164 49.0318 14.269C48.7867 14.157 47.7809 13.8207 47.543 13.5324C46.1165 12.5976 46.1512 10.269 47.0896 9.0045C47.7686 8.08963 48.8136 7.67447 49.974 7.53244Z" fill="#113B53"/>
  <path d="M61.8485 7.48081C62.459 7.43762 63.0721 7.45967 63.6772 7.5466C65.2439 7.78597 66.3515 8.58333 67.2766 9.84238C66.4723 10.4083 65.6208 11.0974 64.8385 11.7074C64.7102 11.5701 64.5797 11.4346 64.4476 11.301C63.3057 10.1575 61.7154 9.95506 60.5374 11.1508C58.8757 12.8372 59.8131 16.4352 62.4676 16.3121C63.7244 16.2539 64.1089 15.7534 64.8938 14.9238C65.2278 15.126 65.6975 15.4797 66.0272 15.7141C66.5088 16.0936 67.5917 16.4701 67.0167 17.1545C65.9966 18.3512 64.5454 19.098 62.9781 19.2328C59.5382 19.5428 56.7072 17.3413 56.4017 13.8549C56.2669 12.2677 56.7614 10.6911 57.7793 9.46548C58.8795 8.15863 60.1852 7.62327 61.8485 7.48081Z" fill="#113B53"/>
  <path d="M36.0348 21.2007C37.2833 21.1679 38.7629 21.1836 39.9976 21.2093C41.2558 21.279 42.761 21.7682 43.5857 22.7408C45.0026 24.4119 44.8943 27.436 43.2227 28.8992C41.6549 30.135 40.566 30.1524 38.648 30.1494C37.7751 30.1463 36.9021 30.1486 36.0293 30.1563C36.1185 27.3861 36.0954 23.9817 36.0348 21.2007ZM38.6009 27.8995C39.524 27.9085 40.6186 27.9975 41.3467 27.2821C41.3609 27.2683 41.3747 27.254 41.3881 27.2394C41.8536 26.6347 42.0351 26.0913 41.9365 25.3306C41.6959 23.4736 40.0544 23.434 38.598 23.4549L38.6009 27.8995Z" fill="#113B53"/>
  <path d="M63.7287 21.2088C64.4176 21.1539 65.6744 21.19 66.4057 21.1885C66.4857 24.1036 66.3778 27.1999 66.4218 30.1524C65.574 30.1469 64.7257 30.1481 63.8774 30.156C63.8919 29.3907 63.886 28.6027 63.8887 27.8353C63.8833 26.9481 63.8876 26.0608 63.9016 25.1736C63.2412 25.9407 62.3639 27.599 61.6176 28.5679C60.7693 27.5194 60.1213 26.1619 59.3304 25.1319C59.3482 26.8074 59.353 28.483 59.346 30.1586C58.5192 30.1446 57.6924 30.1447 56.8655 30.159C56.916 27.2767 56.8875 24.079 56.8623 21.1943L59.5549 21.1967C60.2544 22.1761 60.9567 23.5262 61.6821 24.5832C62.0783 23.7237 63.187 22.0839 63.7287 21.2088Z" fill="#113B53"/>
  <path d="M80.9644 7.66716L84.1896 7.65369C84.2298 10.4668 84.1939 13.3803 84.1928 16.2003L89.674 16.1936C89.6547 17.1197 89.6702 18.1007 89.6697 19.0313C88.7945 18.9743 87.3782 19.0214 86.451 19.0233C84.6336 19.027 82.7678 18.9979 80.9585 19.035C81.0299 15.3224 80.9644 11.3969 80.9644 7.66716Z" fill="#113B53"/>
  <path d="M45.5451 21.1912L52.7759 21.1919C52.7681 21.9078 52.77 22.6238 52.7818 23.3397L48.0542 23.338L48.0582 24.6382L52.3493 24.6327L52.3432 26.6722C51.2098 26.6566 50.0595 26.6651 48.9248 26.6636L48.0537 26.6651L48.0589 27.9969L52.839 27.9925C52.8362 28.713 52.8412 29.4335 52.854 30.1539C50.4178 30.1389 47.9816 30.1404 45.5454 30.1586C45.5126 27.1963 45.5474 24.1601 45.5451 21.1912Z" fill="#113B53"/>
  <path d="M101.204 21.1454C101.878 21.1049 102.977 21.1212 103.656 21.1421C104.75 24.0583 106.272 27.2225 107.458 30.1553L104.676 30.1506C104.49 29.6346 104.296 29.1215 104.094 28.6114C103.951 28.5129 103.865 28.5419 103.671 28.534L100.716 28.5422C100.498 29.0885 100.33 29.6271 100.059 30.1507C99.164 30.1385 98.2685 30.1425 97.374 30.1626C98.0768 28.3531 98.9794 26.4125 99.7294 24.6087C99.986 23.9911 100.917 21.5893 101.204 21.1454ZM101.448 26.6058L102.479 26.6106L103.356 26.6027C103.171 26.2527 102.502 24.3997 102.398 24.2862C102.056 25.0196 101.756 25.8502 101.448 26.6058Z" fill="#113B53"/>
  <path d="M73.4978 21.1863C74.3552 21.1944 75.2126 21.1949 76.07 21.1877L76.0711 23.422C76.0781 25.2474 76.3959 27.8455 75.0285 29.2309C73.6084 30.6699 70.1765 30.6649 68.7408 29.2409C68.365 28.8677 68.0885 28.4067 67.9365 27.8998C67.6198 26.839 67.6939 25.3943 67.696 24.2671L67.6955 21.1876C68.5357 21.207 69.4232 21.192 70.2672 21.1899V24.5001C70.2656 25.8115 69.9505 28.0524 71.8956 28.026C73.7753 28.0004 73.5063 25.9286 73.5047 24.6106L73.4978 21.1863Z" fill="#113B53"/>
  <path d="M80.0501 21.055C81.453 20.8212 83.039 21.4673 84.1853 22.2397C83.694 22.7948 83.4524 23.4296 82.8296 24.0667C82.2428 23.4793 79.9148 22.6585 79.4761 23.6047C79.5631 24.4672 81.3778 24.56 82.0398 24.7924C82.6288 24.9795 83.2887 25.2337 83.7364 25.6734C84.6647 26.585 84.5327 28.5052 83.5985 29.3743C82.7593 30.1551 81.6452 30.2723 80.5532 30.2771C79.0821 30.2603 77.6281 29.8175 76.5366 28.8027C76.724 28.4711 77.6566 27.4502 77.9508 27.1164C78.7685 27.6837 79.4289 28.0606 80.4512 28.1677C80.8979 28.2146 81.7886 28.1405 81.8541 27.5613C81.7236 26.9241 79.772 26.6918 79.1975 26.4668C78.6885 26.3115 78.3073 26.1316 77.8547 25.8328C76.746 25.1004 76.7535 23.2775 77.473 22.2804C78.0609 21.4649 79.0595 21.1849 80.0501 21.055Z" fill="#113B53"/>
  <path d="M93.6682 21.0078C93.927 21.0183 94.1853 21.0386 94.4424 21.0686C95.7648 21.2268 96.6722 21.8798 97.4684 22.8933C96.8053 23.4133 96.2797 23.8716 95.5726 24.369C94.6346 23.5013 93.5598 22.7997 92.3378 23.8326C91.3 24.71 91.2844 26.4259 92.1869 27.3935C92.5407 27.7731 93.0218 28.0082 93.5506 28.0173C94.5112 28.069 94.9793 27.5385 95.636 26.9362C96.0204 27.1871 96.3205 27.4012 96.6856 27.6794C96.903 27.8253 97.2563 28.0407 97.4212 28.2279C97.4303 28.4466 97.3175 28.6158 97.1699 28.7705C96.2534 29.7625 95.2671 30.2503 93.89 30.3065C87.5637 30.5645 87.008 21.3419 93.6682 21.0078Z" fill="#113B53"/>
  <path d="M85.3766 21.1904C86.2281 21.1964 87.0791 21.1955 87.9306 21.1879C87.9027 24.1709 87.9709 27.1803 87.922 30.161C87.1092 30.1286 86.1895 30.1455 85.375 30.1593L85.3766 21.1904Z" fill="#113B53"/>
  <path d="M72.2631 19.7435C73.0346 19.8407 73.9973 20.0347 74.7189 20.2972C74.0939 20.4936 73.6504 20.8029 73.0652 21.1074C72.4902 21.3194 71.5619 21.2482 70.9106 21.255C71.1216 20.9019 71.9361 20.018 72.2631 19.7435Z" fill="#113B53"/>
</svg>